<svg width="132" height="40" viewBox="0 0 132 40" fill="none" xmlns="http://www.w3.org/2000/svg">
<path fill-rule="evenodd" clip-rule="evenodd" d="M17.9344 1.1288C17.6478 0.438174 16.6047 0.73592 16.7302 1.47255L16.9744 2.90634C16.9866 2.97768 17.0082 3.04468 17.0379 3.10648C15.7405 3.53579 14.5091 4.10875 13.3628 4.80637C13.3343 4.7442 13.2967 4.68477 13.2497 4.62984L12.3044 3.52638C11.8171 2.95763 10.9177 3.56128 11.266 4.22331L11.9427 5.50975C11.9758 5.57262 12.0162 5.62871 12.0624 5.6777C10.9721 6.47929 9.97654 7.40105 9.09557 8.42329C9.05059 8.37569 8.99852 8.33309 8.93951 8.29703L7.69506 7.53652C7.05491 7.14531 6.3871 7.99579 6.92405 8.51841L7.97117 9.53757C8.0188 9.58392 8.07072 9.62263 8.12558 9.65386C7.34236 10.7424 6.67947 11.9223 6.15622 13.1745C6.10151 13.1457 6.04222 13.1231 5.97891 13.1079L4.55759 12.7667C3.8272 12.5913 3.45638 13.6053 4.12948 13.9374L5.44377 14.5858C5.50023 14.6136 5.55823 14.6337 5.61671 14.6466C5.21654 15.9101 4.95428 17.2343 4.84745 18.6019C4.7859 18.5911 4.72187 18.5877 4.65625 18.5927L3.19911 18.7049C2.44997 18.7625 2.41244 19.8409 3.15579 19.9498L4.60525 20.1624C4.66942 20.1718 4.7326 20.1728 4.79385 20.1664C4.80107 20.9477 4.85891 21.717 4.96428 22.4712C4.81698 22.322 4.63884 22.1993 4.43551 22.1141L3.44447 21.6983C1.75483 20.9895 -0.130457 22.0163 0.0071059 23.8399C0.113087 25.2449 0.435882 26.815 1.13454 28.3005C1.9108 29.951 4.07782 29.8187 5.17811 28.3684L5.87741 27.4466C6.01757 27.2618 6.11253 27.0551 6.16294 26.8406C6.52439 27.7032 6.95213 28.5314 7.43985 29.3191C7.38336 29.3461 7.3293 29.3808 7.27901 29.4234L6.16384 30.3679C5.59185 30.8524 6.19895 31.7467 6.86475 31.4004L8.16083 30.7264C8.22106 30.695 8.27504 30.657 8.32251 30.6136C9.13141 31.6947 10.0608 32.6815 11.0909 33.5542C11.0436 33.5985 11.0012 33.6497 10.9653 33.7078L10.1969 34.9511C9.80342 35.5876 10.6587 36.2516 11.1843 35.7177L12.2079 34.678C12.2572 34.6279 12.298 34.5728 12.3302 34.5145C13.4269 35.2901 14.6152 35.9459 15.8759 36.4627C15.8431 36.5211 15.8177 36.5849 15.801 36.6536L15.4568 38.0708C15.2805 38.797 16.3003 39.1657 16.6343 38.4965L17.2836 37.195C17.3164 37.1292 17.3386 37.0613 17.3509 36.993C18.6228 37.388 19.9557 37.6457 21.3321 37.7487C21.316 37.8203 21.3101 37.8956 21.3162 37.9731L21.4289 39.4215C21.4869 40.1664 22.5714 40.2037 22.681 39.4646L22.8936 38.031C22.9054 37.9514 22.9042 37.8733 22.8917 37.7985C24.2764 37.7836 25.6233 37.6125 26.9155 37.3019C26.9219 37.3773 26.9399 37.4531 26.9707 37.5273L27.5285 38.8712C27.8151 39.5618 28.8581 39.2641 28.7327 38.5274L28.4885 37.0941C28.4749 37.0141 28.4493 36.9396 28.4139 36.8717C29.7103 36.4374 30.9402 35.8596 32.0847 35.1571C32.1144 35.2326 32.1571 35.3047 32.2133 35.3703L33.1585 36.4736C33.6457 37.0424 34.5452 36.4387 34.1969 35.7767L33.5203 34.4905C33.4798 34.4135 33.4282 34.3466 33.3686 34.2906C34.4575 33.4852 35.4511 32.5597 36.3298 31.5337C36.3825 31.5989 36.4472 31.6564 36.5235 31.7031L37.7678 32.4635C38.4079 32.8547 39.0758 32.0042 38.5388 31.4816L37.4918 30.4625C37.4287 30.4011 37.3581 30.3531 37.2831 30.3182C38.0649 29.2273 38.726 28.045 39.2472 26.7906C39.3176 26.8363 39.397 26.8712 39.484 26.8921L40.9053 27.2333C41.6357 27.4087 42.0065 26.3947 41.3334 26.0626L40.0191 25.4143C39.9402 25.3753 39.8581 25.3515 39.776 25.3414C40.1757 24.0765 40.4372 22.7507 40.543 21.3816C40.6261 21.4049 40.7148 21.4143 40.8066 21.4073L42.2637 21.2951C43.0129 21.2375 43.0504 20.1591 42.3071 20.0502L40.8576 19.8376C40.7674 19.8244 40.6792 19.8277 40.5955 19.8451C40.5841 18.5149 40.426 17.2194 40.1364 15.974C40.5032 16.2223 40.9166 16.3103 41.3403 16.1293C42.0395 15.8241 42.3405 15.0557 42.0232 14.3033C41.6284 13.369 40.9321 12.5918 40.0442 12.0941C40.0544 12.057 40.0642 12.0218 40.0735 11.9881L40.0739 11.9868L40.074 11.9866L40.0742 11.9856L40.075 11.9827L40.0751 11.9825C40.1009 11.8896 40.1237 11.8077 40.1432 11.7257C40.3805 10.8161 40.3221 9.8552 39.9764 8.98066C39.8659 8.71094 39.6686 8.48526 39.4153 8.33902C39.162 8.19277 38.8671 8.13422 38.5768 8.17251C37.9693 8.25697 37.4332 8.71008 37.4358 9.29954L37.4359 9.32C37.4371 9.51372 37.4382 9.71313 37.4463 9.91256C36.5627 8.63728 35.516 7.48225 34.3364 6.47719C34.3981 6.42635 34.4527 6.36465 34.4974 6.29241L35.266 5.04891C35.6594 4.41239 34.8041 3.74837 34.2785 4.28228L33.2548 5.32217C33.195 5.38293 33.1479 5.45083 33.1131 5.52297C32.0188 4.74293 30.8324 4.08253 29.5732 3.561C29.6126 3.49644 29.6429 3.42467 29.6618 3.34671L30.006 1.92924C30.1824 1.20299 29.1626 0.834273 28.8286 1.50355L28.1791 2.80529C28.143 2.87767 28.1198 2.95267 28.1084 3.02801C26.8377 2.62763 25.5057 2.36443 24.1298 2.25591C24.1467 2.18308 24.1529 2.10632 24.1467 2.02721L24.034 0.578455C23.976 -0.166441 22.8915 -0.20375 22.7819 0.53538L22.5692 1.96932C22.5575 2.04823 22.5586 2.12569 22.5708 2.19995C21.1861 2.20928 19.8387 2.37493 18.5456 2.68004C18.538 2.61068 18.5205 2.54106 18.4922 2.47282L17.9344 1.1288ZM37.5912 19.9995C37.5912 18.3045 37.3044 16.6756 36.7763 15.1582C35.93 15.7919 34.9544 16.3551 33.8517 16.7569C30.8419 17.8538 28.5441 18.3315 26.6048 18.5204C24.3999 21.5349 20.6516 22.7925 18.8381 23.0514L19.0691 18.5373C17.8884 18.5862 16.6197 18.7409 15.1361 19.1198C12.5608 19.7777 10.1486 20.819 7.938 22.0372C8.93669 29.2446 15.1573 34.8045 22.6946 34.8045C30.9286 34.8045 37.5912 28.1693 37.5912 19.9995ZM12.1981 25.9119C11.455 26.0434 10.7454 25.551 10.6132 24.8122C10.4809 24.0733 10.9761 23.3677 11.7192 23.2362C12.4623 23.1048 13.1719 23.5971 13.3041 24.336C13.4363 25.0749 12.9411 25.7805 12.1981 25.9119ZM18.4978 26.0764C18.0128 26.1622 17.5497 25.8408 17.4634 25.3586C17.3771 24.8763 17.7003 24.4158 18.1853 24.33C18.6702 24.2442 19.1334 24.5656 19.2197 25.0478C19.306 25.5301 18.9828 25.9906 18.4978 26.0764ZM26.4983 25.7653C26.0133 25.8511 25.5501 25.5298 25.4638 25.0475C25.3775 24.5653 25.7007 24.1048 26.1857 24.019C26.6707 23.9332 27.1338 24.2545 27.2201 24.7368C27.3064 25.219 26.9832 25.6795 26.4983 25.7653ZM28.1645 30.0136C28.2508 30.4959 28.7139 30.8172 29.1989 30.7314C29.6839 30.6456 30.007 30.1851 29.9207 29.7029C29.8344 29.2206 29.3713 28.8993 28.8863 28.9851C28.4014 29.0709 28.0782 29.5314 28.1645 30.0136ZM18.815 32.1785C18.33 32.2643 17.8669 31.943 17.7806 31.4607C17.6943 30.9785 18.0175 30.518 18.5025 30.4322C18.9875 30.3464 19.4506 30.6677 19.5369 31.15C19.6232 31.6322 19.3 32.0927 18.815 32.1785ZM14.0015 28.4301C14.0878 28.9123 14.5509 29.2337 15.0359 29.1478C15.5209 29.062 15.8441 28.6015 15.7578 28.1193C15.6715 27.6371 15.2083 27.3157 14.7234 27.4015C14.2384 27.4873 13.9152 27.9478 14.0015 28.4301ZM22.7103 28.7158C22.2253 28.8016 21.7622 28.4803 21.6759 27.998C21.5896 27.5158 21.9128 27.0553 22.3978 26.9695C22.8827 26.8837 23.3459 27.205 23.4322 27.6873C23.5185 28.1695 23.1953 28.63 22.7103 28.7158ZM30.3244 25.0878C30.4567 25.8266 31.1663 26.319 31.9093 26.1875C32.6524 26.0561 33.1476 25.3505 33.0154 24.6116C32.8831 23.8727 32.1735 23.3804 31.4305 23.5118C30.6874 23.6433 30.1922 24.3489 30.3244 25.0878ZM22.6744 31.9755C22.8066 32.7143 23.5162 33.2067 24.2593 33.0752C25.0023 32.9438 25.4975 32.2382 25.3653 31.4993C25.2331 30.7604 24.5235 30.2681 23.7804 30.3995C23.0373 30.531 22.5421 31.2366 22.6744 31.9755ZM33.1233 11.1252C33.3968 12.32 32.6876 13.4994 31.5391 13.7593C30.3907 14.0192 29.2379 13.2612 28.9644 12.0664C28.6909 10.8715 29.4002 9.69217 30.5486 9.43226C31.6971 9.17235 32.8498 9.93028 33.1233 11.1252ZM31.626 12.7211C32.1432 12.6041 32.4524 12.0281 32.3166 11.4346C32.1807 10.8411 31.6513 10.4549 31.134 10.572C30.6168 10.689 30.3076 11.265 30.4435 11.8585C30.5793 12.452 31.1088 12.8382 31.626 12.7211ZM104.385 3.99927C99.9479 3.99927 96.3512 7.57445 96.3512 11.9847V27.9555H100.275V15.8854H104.384V11.9848H100.275V11.9847C100.275 9.72868 102.115 7.89984 104.385 7.89984V3.99927ZM94.5871 4.11514H94.5872V8.01571H94.5871C92.3176 8.01571 90.4778 9.84455 90.4778 12.1005H90.4776V28.0712H86.5536V12.1003H86.5538C86.5539 7.69019 90.1505 4.11514 94.5871 4.11514ZM90.4778 12.1005L94.5872 12.1004V16.001H90.4778L90.4778 12.1005ZM63.034 20.0857C63.034 22.3417 61.1942 24.1705 58.9247 24.1705C56.6552 24.1705 54.8153 22.3417 54.8153 20.0857C54.8153 17.8297 56.6552 16.0008 58.9247 16.0008C61.1942 16.0008 63.034 17.8297 63.034 20.0857ZM54.8153 26.9487C56.0176 27.6615 57.423 28.0711 58.9247 28.0711C63.3614 28.0711 66.958 24.4959 66.958 20.0857C66.958 15.6755 63.3614 12.1003 58.9247 12.1003C54.488 12.1003 50.8914 15.6755 50.8914 20.0857V35.9993H54.8153V26.9487ZM80.8649 12.1003H84.7889L84.7889 20.0853V20.0854C84.7889 24.4956 81.1923 28.0708 76.7556 28.0708C72.319 28.0708 68.7224 24.4957 68.7223 20.0856V20.0854V20.0853V12.1003H72.6463V20.0853V20.0854V20.0856C72.6464 22.3415 74.4861 24.1703 76.7556 24.1703C79.0251 24.1703 80.8648 22.3415 80.8649 20.0856V12.1003ZM121.973 18.0197C121.69 16.9052 121.167 15.8567 120.431 14.9508C119.275 13.5299 117.665 12.5458 115.868 12.1625C114.071 11.7791 112.197 12.0198 110.557 12.8444C108.917 13.669 107.611 15.0276 106.857 16.6936C106.103 18.3595 105.946 20.2322 106.413 21.9991C106.88 23.7659 107.942 25.3203 109.423 26.4027C110.903 27.4852 112.712 28.0303 114.548 27.9472C116.384 27.8641 118.136 27.1578 119.511 25.9461L116.909 23.0273C116.183 23.667 115.228 24.0554 114.182 24.0554C112.623 24.0554 111.267 23.1923 110.571 21.9205H120.379V21.9203H121.975C122.132 21.2961 122.216 20.6428 122.216 19.9701L122.216 19.9698C122.216 19.9465 122.216 19.9232 122.216 19.9L121.973 18.0197ZM114.182 15.8852C112.623 15.8852 111.267 16.7482 110.571 18.02H117.794C117.098 16.7482 115.742 15.8852 114.182 15.8852ZM132 16.0003C129.737 16.0074 127.904 17.8335 127.904 20.0851V20.0852L123.98 20.0852V20.0851C123.98 15.6793 127.569 12.1068 132 12.0997V16.0003ZM127.904 28.0708H123.98V20.0855L127.904 20.0855V28.0708Z" fill="white"/>
</svg>
